<?xml version="1.0" encoding="UTF-8" standalone="no"?>
<!DOCTYPE svg PUBLIC "-//W3C//DTD SVG 1.1//EN" "http://www.w3.org/Graphics/SVG/1.1/DTD/svg11.dtd">
<svg width="100%" height="100%" viewBox="0 0 80 94" version="1.1" xmlns="http://www.w3.org/2000/svg" xmlns:xlink="http://www.w3.org/1999/xlink" xml:space="preserve" xmlns:serif="http://www.serif.com/" style="fill-rule:evenodd;clip-rule:evenodd;stroke-linecap:round;stroke-linejoin:round;stroke-miterlimit:1.5;">
    <g>
        <g transform="matrix(1,0,0,1,1.56419,-1.05625)">
            <path d="M38.146,5.044L45.607,31.576C45.674,31.815 45.82,32.024 46.021,32.17C46.222,32.316 46.466,32.39 46.714,32.38L74.252,31.277L51.325,46.57C51.118,46.708 50.964,46.912 50.887,47.148C50.81,47.384 50.815,47.639 50.902,47.872L60.461,73.721L38.831,56.642C38.636,56.488 38.395,56.404 38.146,56.404C37.898,56.404 37.657,56.488 37.462,56.642L15.832,73.721L25.391,47.872C25.477,47.639 25.483,47.384 25.406,47.148C25.329,46.912 25.175,46.708 24.968,46.57L2.041,31.277L29.579,32.38C29.827,32.39 30.071,32.316 30.272,32.17C30.473,32.024 30.619,31.815 30.686,31.576L38.146,5.044Z" style="fill:white;fill-opacity:0;stroke:rgb(145,0,0);stroke-width:4px;"/>
        </g>
        <circle cx="39.711" cy="41.352" r="7.818" style="fill:white;fill-opacity:0;stroke:rgb(145,0,0);stroke-width:4px;"/>
    </g>
</svg>
