<?xml version="1.0" encoding="UTF-8" standalone="no"?>
<!DOCTYPE svg PUBLIC "-//W3C//DTD SVG 1.1//EN" "http://www.w3.org/Graphics/SVG/1.1/DTD/svg11.dtd">
<svg width="100%" height="100%" viewBox="0 0 80 94" version="1.1" xmlns="http://www.w3.org/2000/svg" xmlns:xlink="http://www.w3.org/1999/xlink" xml:space="preserve" xmlns:serif="http://www.serif.com/" style="fill-rule:evenodd;clip-rule:evenodd;stroke-linejoin:round;stroke-miterlimit:2;">
    <g>
        <path d="M40.2,88.8C39.5,88.8 38.7,88.5 38.3,87.9C38.2,87.8 31.1,79 23.4,73.1C22.6,72.5 21.7,71.8 20.9,71.2C13.4,65.7 4.9,59.4 4.9,49.1C4.9,38.7 11.4,32.2 21.9,32.2C31.4,32.2 37.3,38.8 40.2,43.4C43.2,38.8 49.1,32.1 58.5,32.1C69,32.1 75.5,38.6 75.5,49C75.5,59.3 67,65.5 59.5,71.1C58.7,71.7 57.8,72.4 57,73C49.6,78.7 42.8,87 42.2,87.8C41.9,88.3 41.4,88.6 40.8,88.7C40.6,88.8 40.4,88.8 40.2,88.8Z" style="fill-rule:nonzero;"/>
    </g>
    <g>
        <path d="M7.1,31.3L6.8,31.3C5.4,31.2 4.4,29.9 4.6,28.5C4.6,28.2 41.7,2 42,1.9C42.7,1.7 43.4,1.9 43.9,2.2C44.4,2.5 75.2,27.1 75.2,27.3C75.5,28.7 74.6,30 73.2,30.2C71.8,30.5 70.636,29.045 70.436,27.645C70.436,27.645 45.905,12.193 42.766,7.773C41.066,8.573 9.5,29 9.5,29C9.4,30.3 8.3,31.3 7.1,31.3Z" style="fill-rule:nonzero;"/>
        <circle cx="41.408" cy="21.785" r="6.004"/>
    </g>
</svg>
