<?xml version="1.0" encoding="UTF-8" standalone="no"?>
<!DOCTYPE svg PUBLIC "-//W3C//DTD SVG 1.1//EN" "http://www.w3.org/Graphics/SVG/1.1/DTD/svg11.dtd">
<svg width="100%" height="100%" viewBox="0 0 80 94" version="1.1" xmlns="http://www.w3.org/2000/svg" xmlns:xlink="http://www.w3.org/1999/xlink" xml:space="preserve" xmlns:serif="http://www.serif.com/" style="fill-rule:evenodd;clip-rule:evenodd;stroke-linejoin:round;stroke-miterlimit:2;">
    <g>
        <path d="M24.514,24.603C22.805,24.528 21.202,23.915 19.9,22.7C17.8,20.8 16.9,17.7 16.4,15.2C15.3,16.1 14,17.3 12.9,18.7C5.701,24.02 9.446,36.766 9.446,36.766C7.299,38.06 5.926,43.281 6.126,41.881C6.126,41.581 -0.441,25.801 9.2,15.9C12.8,11.4 17.3,8.9 17.4,8.8C18.2,8.4 19.1,8.4 19.9,8.8C20.7,9.2 21.1,10.1 21.1,11C21.1,13.4 21.8,17.8 23.5,19.4C24,19.8 24.5,20 25.2,20C25.449,19.987 25.675,19.958 25.884,19.91C26.617,18.366 27.598,16.961 28.775,15.748C28.848,15.542 28.923,15.326 29,15.1C29.6,13.4 30.2,11.5 31.3,9.8C34.8,3.7 41.7,2 42,1.9C42.7,1.7 43.4,1.9 43.9,2.2C44.4,2.5 44.9,3.2 45,3.8C45.499,6.394 46.47,9.958 47.729,13.14C50.567,14.797 52.833,17.33 54.156,20.366C59.183,18.69 58.9,11.791 58.9,11.5C58.9,10.6 59.3,9.8 59.9,9.3C60.6,8.8 61.5,8.7 62.3,9C62.6,9.1 69.3,11.9 72.3,18.3C74.2,22.4 75.2,27.1 75.2,27.3C76.89,34.956 75.138,43.568 74.45,42.332C73.347,40.35 72.984,37.92 70.918,36.631C70.918,36.631 69.4,23.8 67.7,20.3C66.7,18.1 64.9,16.4 63.4,15.3C62.629,19.061 60.369,23.38 55.366,25.028C55.415,25.531 55.44,26.04 55.44,26.555C55.44,28.694 55.007,30.731 54.224,32.586C55.56,32.274 56.985,32.1 58.5,32.1C69,32.1 75.5,38.6 75.5,49C75.5,59.3 67,65.5 59.5,71.1C58.7,71.7 57.8,72.4 57,73C49.6,78.7 42.8,87 42.2,87.8C41.9,88.3 41.4,88.6 40.8,88.7C40.6,88.8 40.4,88.8 40.2,88.8C39.5,88.8 38.7,88.5 38.3,87.9C38.2,87.8 31.1,79 23.4,73.1C22.6,72.5 21.7,71.8 20.9,71.2C13.4,65.7 4.9,59.4 4.9,49.1C4.9,38.7 11.4,32.2 21.9,32.2C23.197,32.2 24.428,32.323 25.592,32.547C24.819,30.703 24.392,28.679 24.392,26.555C24.392,25.894 24.433,25.242 24.514,24.603ZM41.139,42.032C40.736,42.064 40.328,42.08 39.916,42.08C39.713,42.08 39.511,42.076 39.31,42.068C39.633,42.525 39.93,42.971 40.2,43.4C40.487,42.961 40.8,42.502 41.139,42.032ZM21.8,37.3C14,37.3 9.8,41.5 9.8,49.2C9.8,57 16.6,62 23.7,67.3C24.6,67.9 25.4,68.6 26.3,69.2C32.1,73.6 37.4,79.3 40.1,82.5C42.8,79.3 48.2,73.6 54,69.2C54.8,68.6 55.7,67.9 56.6,67.3C63.8,62 70.5,57 70.5,49.2C70.5,41.5 66.2,37.3 58.5,37.3C47.8,37.3 42.7,49.2 42.5,49.8C42.2,50.7 41.3,51.3 40.4,51.4C39.3,51.5 38.3,50.9 37.9,49.9C37.8,49.6 32.7,37.3 21.8,37.3Z"/>
    </g>
</svg>
